<?xml version="1.0" encoding="utf-8"?>
<svg viewBox="219.659 -0.14 60.46 60.738" width="60.46" height="60.738" xmlns="http://www.w3.org/2000/svg">
  <g transform="matrix(1, 0, 0, 1, 91.727058, -42.804405)">
    <path d="M 174.762 62.974 L 169.412 62.974 C 168.788 62.973 168.194 62.703 167.782 62.234 L 165.612 59.784 C 164.932 59.023 163.742 59.023 163.062 59.784 L 161.202 61.884 C 160.596 62.575 159.722 62.972 158.802 62.974 L 129.522 62.974 C 128.678 65.393 128.144 67.91 127.932 70.464 L 155.572 70.464 C 156.056 70.463 156.519 70.264 156.852 69.914 L 159.432 67.224 C 159.755 66.891 160.199 66.703 160.662 66.704 L 160.762 66.704 C 161.25 66.706 161.714 66.913 162.042 67.274 L 164.212 69.724 C 164.623 70.194 165.218 70.464 165.842 70.464 L 188.392 70.464 C 188.186 67.909 187.651 65.392 186.802 62.974 L 174.802 62.974 L 174.762 62.974 Z" style="fill: rgb(255, 255, 255);"/>
    <path d="M 144.652 86.214 C 145.136 86.211 145.597 86.012 145.932 85.664 L 148.502 82.974 C 148.827 82.644 149.269 82.456 149.732 82.454 L 149.842 82.454 C 150.33 82.456 150.794 82.663 151.122 83.024 L 153.282 85.474 C 153.695 85.941 154.288 86.21 154.912 86.214 L 185.482 86.214 C 186.647 83.819 187.488 81.28 187.982 78.664 L 158.632 78.664 C 158.013 78.661 157.424 78.396 157.012 77.934 L 154.842 75.484 C 154.518 75.116 154.052 74.905 153.562 74.904 C 153.075 74.902 152.611 75.114 152.292 75.484 L 150.432 77.584 C 149.82 78.272 148.943 78.665 148.022 78.664 L 128.342 78.664 C 128.832 81.286 129.669 83.832 130.832 86.234 L 144.652 86.214 Z" style="fill: rgb(255, 255, 255);"/>
    <path d="M 166.342 54.784 C 166.829 54.783 167.295 54.585 167.632 54.234 L 170.202 51.554 C 170.523 51.216 170.967 51.025 171.432 51.024 L 171.542 51.024 C 172.03 51.022 172.494 51.234 172.812 51.604 L 174.982 54.054 C 175.399 54.515 175.99 54.78 176.612 54.784 L 182.422 54.784 C 170.286 38.624 146.039 38.624 133.902 54.784 L 166.342 54.784 Z" style="fill: rgb(255, 255, 255);"/>
    <path d="M 154.662 93.714 L 146.712 93.714 C 146.091 93.713 145.5 93.443 145.092 92.974 L 142.932 90.524 C 142.249 89.762 141.056 89.762 140.372 90.524 L 138.502 92.664 C 137.897 93.356 137.022 93.753 136.102 93.754 L 135.982 93.754 C 147.975 106.618 168.36 106.618 180.352 93.754 L 154.662 93.714 Z" style="fill: rgb(255, 255, 255);"/>
  </g>
</svg>