<svg width="22" height="17" viewBox="0 0 22 17" fill="none" xmlns="http://www.w3.org/2000/svg">
<path d="M18.4219 2.21094C18.4219 2.21094 18.4219 2.21094 18.3867 2.21094C17.0508 1.57812 15.6445 1.15625 14.2031 0.910156C14.168 0.875 14.1328 0.910156 14.1328 0.910156C13.9219 1.26172 13.7461 1.64844 13.6055 2C12.0234 1.75391 10.4414 1.75391 8.85938 2C8.71875 1.64844 8.54297 1.26172 8.33203 0.910156C8.33203 0.910156 8.29688 0.875 8.26172 0.910156C6.82031 1.15625 5.41406 1.57812 4.07812 2.21094C4.04297 2.21094 4.04297 2.21094 4.04297 2.21094C1.37109 6.21875 0.632812 10.1211 0.984375 13.9883C0.984375 13.9883 0.984375 14.0234 1.01953 14.0234C2.56641 15.1836 4.32422 16.0625 6.1875 16.625C6.1875 16.6602 6.22266 16.625 6.25781 16.625C6.64453 16.0625 6.99609 15.5 7.3125 14.9023C7.3125 14.8672 7.3125 14.832 7.27734 14.7969C6.71484 14.5859 6.15234 14.3398 5.66016 14.0234C5.625 14.0234 5.58984 13.9531 5.66016 13.918C5.76562 13.8477 5.87109 13.7773 5.97656 13.6719C5.97656 13.6719 6.01172 13.6719 6.04688 13.6719C9.42188 15.2188 13.0781 15.2188 16.418 13.6719C16.4531 13.6719 16.4531 13.6719 16.4883 13.6719C16.5938 13.7773 16.6992 13.8477 16.8047 13.918C16.8398 13.9531 16.8398 14.0234 16.8047 14.0234C16.2773 14.3398 15.75 14.5859 15.1875 14.7969C15.1523 14.832 15.1523 14.8672 15.1523 14.9023C15.4688 15.5 15.8203 16.0625 16.207 16.625C16.2422 16.625 16.2422 16.6602 16.2773 16.625C18.1406 16.0625 19.8984 15.1836 21.4453 14.0234C21.4805 14.0234 21.4805 13.9883 21.4805 13.9883C21.9023 9.52344 20.7422 5.65625 18.4219 2.21094ZM7.80469 11.6328C6.78516 11.6328 5.94141 10.6836 5.94141 9.55859C5.94141 8.39844 6.78516 7.48438 7.80469 7.48438C8.85938 7.48438 9.66797 8.39844 9.66797 9.55859C9.66797 10.6836 8.82422 11.6328 7.80469 11.6328ZM14.6602 11.6328C13.6406 11.6328 12.832 10.6836 12.832 9.55859C12.832 8.39844 13.6406 7.48438 14.6602 7.48438C15.7148 7.48438 16.5586 8.39844 16.5234 9.55859C16.5234 10.6836 15.7148 11.6328 14.6602 11.6328Z" fill="white"/>
</svg>
