<svg width="30" height="22" viewBox="0 0 30 22" fill="none" xmlns="http://www.w3.org/2000/svg">
<path d="M24.5625 2.28125C24.5625 2.28125 24.5625 2.28125 24.5156 2.28125C22.7344 1.4375 20.8594 0.875 18.9375 0.546875C18.8906 0.5 18.8438 0.546875 18.8438 0.546875C18.5625 1.01562 18.3281 1.53125 18.1406 2C16.0312 1.67188 13.9219 1.67188 11.8125 2C11.625 1.53125 11.3906 1.01562 11.1094 0.546875C11.1094 0.546875 11.0625 0.5 11.0156 0.546875C9.09375 0.875 7.21875 1.4375 5.4375 2.28125C5.39062 2.28125 5.39062 2.28125 5.39062 2.28125C1.82812 7.625 0.84375 12.8281 1.3125 17.9844C1.3125 17.9844 1.3125 18.0312 1.35938 18.0312C3.42188 19.5781 5.76562 20.75 8.25 21.5C8.25 21.5469 8.29688 21.5 8.34375 21.5C8.85938 20.75 9.32812 20 9.75 19.2031C9.75 19.1562 9.75 19.1094 9.70312 19.0625C8.95312 18.7812 8.20312 18.4531 7.54688 18.0312C7.5 18.0312 7.45312 17.9375 7.54688 17.8906C7.6875 17.7969 7.82812 17.7031 7.96875 17.5625C7.96875 17.5625 8.01562 17.5625 8.0625 17.5625C12.5625 19.625 17.4375 19.625 21.8906 17.5625C21.9375 17.5625 21.9375 17.5625 21.9844 17.5625C22.125 17.7031 22.2656 17.7969 22.4062 17.8906C22.4531 17.9375 22.4531 18.0312 22.4062 18.0312C21.7031 18.4531 21 18.7812 20.25 19.0625C20.2031 19.1094 20.2031 19.1562 20.2031 19.2031C20.625 20 21.0938 20.75 21.6094 21.5C21.6562 21.5 21.6562 21.5469 21.7031 21.5C24.1875 20.75 26.5312 19.5781 28.5938 18.0312C28.6406 18.0312 28.6406 17.9844 28.6406 17.9844C29.2031 12.0312 27.6562 6.875 24.5625 2.28125ZM10.4062 14.8438C9.04688 14.8438 7.92188 13.5781 7.92188 12.0781C7.92188 10.5312 9.04688 9.3125 10.4062 9.3125C11.8125 9.3125 12.8906 10.5312 12.8906 12.0781C12.8906 13.5781 11.7656 14.8438 10.4062 14.8438ZM19.5469 14.8438C18.1875 14.8438 17.1094 13.5781 17.1094 12.0781C17.1094 10.5312 18.1875 9.3125 19.5469 9.3125C20.9531 9.3125 22.0781 10.5312 22.0312 12.0781C22.0312 13.5781 20.9531 14.8438 19.5469 14.8438Z" fill="#292C33"/>
</svg>
