<?xml version="1.0" encoding="utf-8" ?>
<svg
  fill="none"
  height="26"
  width="115"
  aria-labelledby="aptos-welcome"
  viewBox="0 0 380.21 60.7"
  xmlns="http://www.w3.org/2000/svg"
>
  <title
    id="aptos-welcome"
  >Aptos - Building the safest and most scalable Layer 1 blockchain</title>
  <path
    d="M197.83,20.31h-5.35a2.17,2.17,0,0,1-1.63-.74l-2.17-2.45a1.71,1.71,0,0,0-2.55,0l-1.86,2.1a3.2,3.2,0,0,1-2.4,1.09H152.59A30.34,30.34,0,0,0,151,27.8h27.64a1.77,1.77,0,0,0,1.28-.55l2.58-2.69a1.71,1.71,0,0,1,1.23-.52h.1a1.74,1.74,0,0,1,1.28.57l2.17,2.45a2.16,2.16,0,0,0,1.63.74h22.55a29.9,29.9,0,0,0-1.59-7.49h-12Z"
    style="fill: rgb(254, 254, 254);"
  />
  <path
    d="M167.72,43.55A1.79,1.79,0,0,0,169,43l2.57-2.69a1.74,1.74,0,0,1,1.23-.52h.11a1.74,1.74,0,0,1,1.28.57l2.16,2.45a2.19,2.19,0,0,0,1.63.74h30.57A30,30,0,0,0,211.05,36H181.7a2.18,2.18,0,0,1-1.62-.73l-2.17-2.45a1.71,1.71,0,0,0-1.28-.58,1.67,1.67,0,0,0-1.27.58l-1.86,2.1A3.22,3.22,0,0,1,171.09,36H151.41a30,30,0,0,0,2.49,7.57Z"
    style="fill: rgb(254, 254, 254);"
  />
  <g>
    <path
      d="M 189.41 12.12 C 189.897 12.12 190.363 11.921 190.7 11.57 L 193.27 8.89 C 193.59 8.552 194.035 8.361 194.5 8.36 L 194.61 8.36 C 195.098 8.359 195.562 8.57 195.88 8.94 L 198.05 11.39 C 198.466 11.852 199.058 12.117 199.68 12.12 L 205.49 12.12 C 193.353 -4.04 169.107 -4.04 156.97 12.12 L 189.41 12.12 Z"
      style="fill: rgb(254, 254, 254);"
    />
    <path
      d="M 177.73 51.05 L 169.78 51.05 C 169.158 51.049 168.568 50.779 168.16 50.31 L 166 47.86 C 165.317 47.099 164.123 47.099 163.44 47.86 L 161.57 50 C 160.965 50.692 160.09 51.09 159.17 51.09 L 159.05 51.09 C 171.043 63.954 191.427 63.954 203.42 51.09 L 177.73 51.05 Z"
      style="fill: rgb(254, 254, 254);"
    />
  </g>
  <path
    d="M47.07,58.74l-6.17-15H13.31l-6.17,15H0L27.06,2,54.21,58.74ZM15.64,38.05H38.49L27,13.86Z"
    style="fill: rgb(254, 254, 254);"
  />
  <path
    d="M64.07,58.74V2h15.8C92.22,2,98.71,7.65,98.71,18.32c0,10.26-6.89,16.2-18.92,16.2H70.73V58.74Zm6.66-30.16h7.54C87.81,28.58,92,25.46,92,18.32c0-7.38-4.25-10.43-13.71-10.43H70.73Z"
    style="fill: rgb(254, 254, 254);"
  />
  <polygon
    points="122.89 8.05 103.32 8.05 103.32 1.96 149.11 1.96 149.11 8.05 129.54 8.05 129.54 58.74 122.89 58.74 122.89 8.05"
    style="fill: rgb(254, 254, 254);"
  />
  <path
    d="M 340.61 48.131 L 346.34 44.241 L 346.78 45.161 C 350.31 51.581 354.16 54.161 360.01 54.161 C 366.51 54.161 371.08 49.671 371.08 44.211 C 371.08 39.081 368.51 35.631 358.25 31.381 C 346.46 26.491 342.45 21.441 342.45 14.221 C 342.45 6.361 348.63 0.221 359.29 0.221 C 367.15 0.221 372.52 3.581 375.57 9.041 L 370.92 12.251 L 369.56 11.921 C 367.15 8.161 364.18 5.991 359.13 5.991 C 352.96 5.991 349.35 9.441 349.35 14.091 C 349.35 18.421 351.67 20.911 361.7 25.481 C 374.77 31.411 377.98 36.301 377.98 44.161 C 377.98 52.741 370.6 60.041 360.09 60.041 C 351.27 60.041 345.18 56.671 340.61 48.171"
    style="opacity: 0.9; fill: rgb(254, 254, 254);"
  />
  <g transform="matrix(1, 0, 0, 1, 91.727058, -42.804405)">
    <path
      d="M 174.762 62.974 L 169.412 62.974 C 168.788 62.973 168.194 62.703 167.782 62.234 L 165.612 59.784 C 164.932 59.023 163.742 59.023 163.062 59.784 L 161.202 61.884 C 160.596 62.575 159.722 62.972 158.802 62.974 L 129.522 62.974 C 128.678 65.393 128.144 67.91 127.932 70.464 L 155.572 70.464 C 156.056 70.463 156.519 70.264 156.852 69.914 L 159.432 67.224 C 159.755 66.891 160.199 66.703 160.662 66.704 L 160.762 66.704 C 161.25 66.706 161.714 66.913 162.042 67.274 L 164.212 69.724 C 164.623 70.194 165.218 70.464 165.842 70.464 L 188.392 70.464 C 188.186 67.909 187.651 65.392 186.802 62.974 L 174.802 62.974 L 174.762 62.974 Z"
      style="fill: rgb(254, 254, 254);"
    />
    <path
      d="M 144.652 86.214 C 145.136 86.211 145.597 86.012 145.932 85.664 L 148.502 82.974 C 148.827 82.644 149.269 82.456 149.732 82.454 L 149.842 82.454 C 150.33 82.456 150.794 82.663 151.122 83.024 L 153.282 85.474 C 153.695 85.941 154.288 86.21 154.912 86.214 L 185.482 86.214 C 186.647 83.819 187.488 81.28 187.982 78.664 L 158.632 78.664 C 158.013 78.661 157.424 78.396 157.012 77.934 L 154.842 75.484 C 154.518 75.116 154.052 74.905 153.562 74.904 C 153.075 74.902 152.611 75.114 152.292 75.484 L 150.432 77.584 C 149.82 78.272 148.943 78.665 148.022 78.664 L 128.342 78.664 C 128.832 81.286 129.669 83.832 130.832 86.234 L 144.652 86.214 Z"
      style="fill: rgb(254, 254, 254);"
    />
    <path
      d="M 166.342 54.784 C 166.829 54.783 167.295 54.585 167.632 54.234 L 170.202 51.554 C 170.523 51.216 170.967 51.025 171.432 51.024 L 171.542 51.024 C 172.03 51.022 172.494 51.234 172.812 51.604 L 174.982 54.054 C 175.399 54.515 175.99 54.78 176.612 54.784 L 182.422 54.784 C 170.286 38.624 146.039 38.624 133.902 54.784 L 166.342 54.784 Z"
      style="fill: rgb(254, 254, 254);"
    />
    <path
      d="M 154.662 93.714 L 146.712 93.714 C 146.091 93.713 145.5 93.443 145.092 92.974 L 142.932 90.524 C 142.249 89.762 141.056 89.762 140.372 90.524 L 138.502 92.664 C 137.897 93.356 137.022 93.753 136.102 93.754 L 135.982 93.754 C 147.975 106.618 168.36 106.618 180.352 93.754 L 154.662 93.714 Z"
      style="fill: rgb(254, 254, 254);"
    />
  </g>
  <polygon
    points="305.064 7.96 295.236 8.375 295.57 1.608 331.254 1.839 331.254 7.96 330.959 8.191 330.963 58.605 324.647 58.668 324.099 7.96"
    style="fill: rgb(254, 254, 254);"
    transform="matrix(-1, 0, 0, -1, 626.48999, 60.275998)"
  />
</svg>
