<svg width="30" height="18" viewBox="0 0 30 18" fill="none" xmlns="http://www.w3.org/2000/svg">
<path d="M8.4375 0.515625C3.75 0.515625 0 4.3125 0 9C0 13.7344 3.75 17.5312 8.4375 17.5312C13.125 17.5312 16.9219 13.7344 16.9219 9C16.9219 4.3125 13.125 0.515625 8.4375 0.515625ZM21.9375 0.984375C19.5938 0.984375 17.7188 4.59375 17.7188 9.04688C17.7188 13.4531 19.5938 17.0625 21.9375 17.0625C24.2812 17.0625 26.2031 13.4531 26.2031 9.04688C26.2031 4.59375 24.2812 0.984375 21.9375 0.984375ZM28.5 1.82812C27.6562 1.82812 27 5.0625 27 9.04688C27 12.9844 27.6562 16.2188 28.5 16.2188C29.2969 16.2188 30 12.9844 30 9C30 5.0625 29.2969 1.82812 28.5 1.82812Z" fill="#292C33"/>
</svg>
