<svg width="23" height="14" viewBox="0 0 23 14" fill="none" xmlns="http://www.w3.org/2000/svg">
<path d="M6.32812 0.386719C2.8125 0.386719 0 3.23438 0 6.75C0 10.3008 2.8125 13.1484 6.32812 13.1484C9.84375 13.1484 12.6914 10.3008 12.6914 6.75C12.6914 3.23438 9.84375 0.386719 6.32812 0.386719ZM16.4531 0.738281C14.6953 0.738281 13.2891 3.44531 13.2891 6.78516C13.2891 10.0898 14.6953 12.7969 16.4531 12.7969C18.2109 12.7969 19.6523 10.0898 19.6523 6.78516C19.6523 3.44531 18.2109 0.738281 16.4531 0.738281ZM21.375 1.37109C20.7422 1.37109 20.25 3.79688 20.25 6.78516C20.25 9.73828 20.7422 12.1641 21.375 12.1641C21.9727 12.1641 22.5 9.73828 22.5 6.75C22.5 3.79688 21.9727 1.37109 21.375 1.37109Z" fill="white"/>
</svg>
