<svg width="197" height="109" viewBox="0 0 197 109" fill="none" xmlns="http://www.w3.org/2000/svg">
<g clip-path="url(#clip0_35_355)">
<g style="mix-blend-mode:overlay">
<path d="M67.0504 128L-56.082 89.3098C-54.9524 85.6558 -53.6075 82.0554 -52.2089 78.5626L67.0504 128ZM66.889 127.893L66.7814 127.409L-35.3717 49.4374C-33.1662 46.5357 -30.7993 43.7414 -28.3248 41.0008L66.7276 127.355L-2.39652 19.1839C0.777275 17.1419 4.05865 15.2611 7.34003 13.5416L66.6738 127.033L39.078 1.98825C42.7897 1.1822 46.609 0.483627 50.3745 0L67.1042 127.678L67.3193 127.248L83.7262 0C87.438 0.483627 91.1497 1.12846 94.8614 1.93451L67.4269 127.033L126.761 13.5416C130.096 15.2611 133.377 17.1956 136.497 19.1839L67.2118 127.785L162.318 40.8396C164.846 43.5802 167.267 46.4819 169.526 49.4374L67.2655 127.893L186.417 78.5626C187.87 82.0554 189.161 85.602 190.29 89.2024L67.2655 127.946H67.158L67.3193 127.839V127.463L67.158 127.785L67.2655 127.893H67.1042L66.889 127.57V128.054V127.893ZM66.9966 127.516L67.1042 127.731V127.624L66.9966 127.516Z" fill="white"/>
</g>
</g>
<defs>
<clipPath id="clip0_35_355">
<rect width="258.207" height="128" fill="white" transform="translate(-62)"/>
</clipPath>
</defs>
</svg>
