<svg width="153" height="116" viewBox="0 0 153 116" fill="none" xmlns="http://www.w3.org/2000/svg">
<g style="mix-blend-mode:overlay">
<path d="M87 7.25C131.008 7.25 166.75 42.9925 166.75 87C166.75 131.008 131.008 166.75 87 166.75C42.9925 166.75 7.25 131.008 7.25 87C7.25 42.9925 42.9925 7.25 87 7.25ZM87 0C38.9325 0 0 38.9325 0 87C0 135.068 38.9325 174 87 174C135.068 174 174 135.068 174 87C174 38.9325 135.068 0 87 0Z" fill="white"/>
</g>
<g style="mix-blend-mode:overlay">
<path d="M87 65.25C98.9625 65.25 108.75 75.0375 108.75 87C108.75 98.9625 98.9625 108.75 87 108.75C75.0375 108.75 65.25 98.9625 65.25 87C65.25 75.0375 75.0375 65.25 87 65.25ZM87 58C70.9775 58 58 70.9775 58 87C58 103.022 70.9775 116 87 116C103.022 116 116 103.022 116 87C116 70.9775 103.022 58 87 58Z" fill="white"/>
</g>
<g style="mix-blend-mode:overlay">
<path d="M87 36.25C114.985 36.25 137.75 59.015 137.75 87C137.75 114.985 114.985 137.75 87 137.75C59.015 137.75 36.25 114.985 36.25 87C36.25 59.015 59.015 36.25 87 36.25ZM87 29C55.0275 29 29 55.0275 29 87C29 118.972 55.0275 145 87 145C118.972 145 145 118.972 145 87C145 55.0275 118.972 29 87 29Z" fill="white"/>
</g>
</svg>
