<svg width="18" height="18" viewBox="0 0 18 18" fill="none" xmlns="http://www.w3.org/2000/svg">
<path d="M9.21875 0.03125C4.40234 0.03125 0.5 3.96875 0.5 8.75C0.5 13.5664 4.40234 17.4688 9.21875 17.4688C14 17.4688 17.9375 13.5664 17.9375 8.75C17.9375 3.96875 14 0.03125 9.21875 0.03125ZM13.2266 5.97266C13.1211 7.34375 12.5586 10.7188 12.2422 12.2305C12.1367 12.8984 11.8906 13.1094 11.6445 13.1445C11.1523 13.1797 10.7656 12.793 10.2734 12.4766C9.5 11.9844 9.07812 11.668 8.33984 11.1758C7.46094 10.6133 8.02344 10.2969 8.51562 9.80469C8.65625 9.66406 10.8711 7.625 10.9062 7.44922C10.9414 7.41406 10.9414 7.34375 10.8711 7.27344C10.8359 7.23828 10.7656 7.27344 10.6953 7.27344C10.625 7.27344 9.39453 8.08203 7.03906 9.69922C6.6875 9.94531 6.37109 10.0508 6.08984 10.0508C5.77344 10.0508 5.17578 9.875 4.71875 9.73438C4.19141 9.55859 3.73438 9.45312 3.76953 9.17188C3.80469 8.99609 4.01562 8.85547 4.4375 8.67969C6.96875 7.55469 8.65625 6.85156 9.5 6.5C11.9258 5.48047 12.4531 5.30469 12.7695 5.30469C12.8398 5.30469 13.0156 5.30469 13.1211 5.41016C13.1562 5.44531 13.2266 5.55078 13.2266 5.62109C13.2617 5.76172 13.2617 5.86719 13.2266 5.97266Z" fill="white"/>
</svg>
