<svg width="24" height="24" viewBox="0 0 24 24" fill="none" xmlns="http://www.w3.org/2000/svg">
<path d="M11.625 0.375C5.20312 0.375 0 5.625 0 12C0 18.4219 5.20312 23.625 11.625 23.625C18 23.625 23.25 18.4219 23.25 12C23.25 5.625 18 0.375 11.625 0.375ZM16.9688 8.29688C16.8281 10.125 16.0781 14.625 15.6562 16.6406C15.5156 17.5312 15.1875 17.8125 14.8594 17.8594C14.2031 17.9062 13.6875 17.3906 13.0312 16.9688C12 16.3125 11.4375 15.8906 10.4531 15.2344C9.28125 14.4844 10.0312 14.0625 10.6875 13.4062C10.875 13.2188 13.8281 10.5 13.875 10.2656C13.9219 10.2188 13.9219 10.125 13.8281 10.0312C13.7812 9.98438 13.6875 10.0312 13.5938 10.0312C13.5 10.0312 11.8594 11.1094 8.71875 13.2656C8.25 13.5938 7.82812 13.7344 7.45312 13.7344C7.03125 13.7344 6.23438 13.5 5.625 13.3125C4.92188 13.0781 4.3125 12.9375 4.35938 12.5625C4.40625 12.3281 4.6875 12.1406 5.25 11.9062C8.625 10.4062 10.875 9.46875 12 9C15.2344 7.64062 15.9375 7.40625 16.3594 7.40625C16.4531 7.40625 16.6875 7.40625 16.8281 7.54688C16.875 7.59375 16.9688 7.73438 16.9688 7.82812C17.0156 8.01562 17.0156 8.15625 16.9688 8.29688Z" fill="#292C33"/>
</svg>
