<svg width="24" height="20" viewBox="0 0 24 20" fill="none" xmlns="http://www.w3.org/2000/svg">
<path d="M21.5156 5.125C21.5156 5.35938 21.5156 5.54688 21.5156 5.78125C21.5156 12.2969 16.5938 19.75 7.54688 19.75C4.73438 19.75 2.15625 18.9531 0 17.5469C0.375 17.5938 0.75 17.6406 1.17188 17.6406C3.46875 17.6406 5.57812 16.8438 7.26562 15.5312C5.10938 15.4844 3.28125 14.0781 2.67188 12.1094C3 12.1562 3.28125 12.2031 3.60938 12.2031C4.03125 12.2031 4.5 12.1094 4.875 12.0156C2.625 11.5469 0.9375 9.57812 0.9375 7.1875V7.14062C1.59375 7.51562 2.39062 7.70312 3.1875 7.75C1.82812 6.85938 0.984375 5.35938 0.984375 3.67188C0.984375 2.73438 1.21875 1.89062 1.64062 1.1875C4.07812 4.14062 7.73438 6.10938 11.8125 6.34375C11.7188 5.96875 11.6719 5.59375 11.6719 5.21875C11.6719 2.5 13.875 0.296875 16.5938 0.296875C18 0.296875 19.2656 0.859375 20.2031 1.84375C21.2812 1.60938 22.3594 1.1875 23.2969 0.625C22.9219 1.79688 22.1719 2.73438 21.1406 3.34375C22.125 3.25 23.1094 2.96875 23.9531 2.59375C23.2969 3.57812 22.4531 4.42188 21.5156 5.125Z" fill="#292C33"/>
</svg>
