<?xml version="1.0" encoding="utf-8"?>
<svg version="1.1" id="Layer_1" x="0px" y="0px" viewBox="0 0 122.88 101.33" style="enable-background:new 0 0 122.88 101.33" xmlns="http://www.w3.org/2000/svg">
  <style type="text/css">.st0{fill-rule:evenodd;clip-rule:evenodd;}</style>
  <g>
    <path class="st0" d="M 90.62 33.32 L 109.02 33.32 L 109.02 30.53 C 106.14 19.8 98.82 19.87 89.77 19.96 C 88.28 19.98 86.93 19.99 86.85 19.99 L 18.07 19.99 C 16.49 19.99 15.21 18.71 15.21 17.13 C 15.21 15.55 16.49 14.27 18.07 14.27 L 86.85 14.27 C 88.88 14.27 89.31 14.27 89.72 14.26 C 97.46 14.18 104.22 14.11 109.02 18.64 L 109.02 17.33 C 109.02 14.13 107.71 11.23 105.6 9.12 C 103.49 7.01 100.58 5.7 97.39 5.7 L 17.34 5.7 C 14.14 5.7 11.24 7.01 9.13 9.12 C 7.02 11.23 5.71 14.14 5.71 17.33 L 5.71 83.97 C 5.71 87.17 7.02 90.07 9.13 92.18 C 11.24 94.29 14.15 95.6 17.34 95.6 L 97.38 95.6 C 100.58 95.6 103.48 94.29 105.59 92.18 C 107.7 90.07 109.01 87.16 109.01 83.97 L 109.01 74.51 L 90.61 74.51 C 85.06 74.51 80.01 72.24 76.36 68.59 C 72.71 64.94 70.44 59.89 70.44 54.34 L 70.44 53.47 C 70.44 47.92 72.71 42.87 76.36 39.22 C 80.02 35.59 85.06 33.32 90.62 33.32 Z M 114.73 33.43 C 116.8 33.74 118.65 34.72 120.06 36.14 C 121.8 37.88 122.87 40.28 122.87 42.92 L 122.87 64.52 C 122.87 67.28 121.75 69.78 119.94 71.59 C 118.55 72.98 116.74 73.97 114.73 74.35 L 114.73 83.98 C 114.73 88.75 112.78 93.09 109.64 96.23 C 106.5 99.37 102.16 101.32 97.39 101.32 L 17.34 101.32 C 12.57 101.32 8.23 99.37 5.09 96.23 C 1.95 93.1 0 88.76 0 83.99 L 0 17.34 C 0 12.57 1.95 8.23 5.09 5.09 C 8.23 1.95 12.57 0 17.34 0 L 97.38 0 C 102.15 0 106.49 1.95 109.63 5.09 C 112.77 8.23 114.72 12.57 114.72 17.34 L 114.72 33.43 L 114.73 33.43 Z"/>
  </g>
  <g transform="matrix(0.658227, 0, 0, 0.648548, -12.040032, 6.669644)" style="">
    <path d="M 174.762 62.974 L 169.412 62.974 C 168.788 62.973 168.194 62.703 167.782 62.234 L 165.612 59.784 C 164.932 59.023 163.742 59.023 163.062 59.784 L 161.202 61.884 C 160.596 62.575 159.722 62.972 158.802 62.974 L 129.522 62.974 C 128.678 65.393 128.144 67.91 127.932 70.464 L 155.572 70.464 C 156.056 70.463 156.519 70.264 156.852 69.914 L 159.432 67.224 C 159.755 66.891 160.199 66.703 160.662 66.704 L 160.762 66.704 C 161.25 66.706 161.714 66.913 162.042 67.274 L 164.212 69.724 C 164.623 70.194 165.218 70.464 165.842 70.464 L 188.392 70.464 C 188.186 67.909 187.651 65.392 186.802 62.974 L 174.802 62.974 L 174.762 62.974 Z" style="fill: rgb(255, 255, 255);"/>
    <path d="M 144.652 86.214 C 145.136 86.211 145.597 86.012 145.932 85.664 L 148.502 82.974 C 148.827 82.644 149.269 82.456 149.732 82.454 L 149.842 82.454 C 150.33 82.456 150.794 82.663 151.122 83.024 L 153.282 85.474 C 153.695 85.941 154.288 86.21 154.912 86.214 L 185.482 86.214 C 186.647 83.819 187.488 81.28 187.982 78.664 L 158.632 78.664 C 158.013 78.661 157.424 78.396 157.012 77.934 L 154.842 75.484 C 154.518 75.116 154.052 74.905 153.562 74.904 C 153.075 74.902 152.611 75.114 152.292 75.484 L 150.432 77.584 C 149.82 78.272 148.943 78.665 148.022 78.664 L 128.342 78.664 C 128.832 81.286 129.669 83.832 130.832 86.234 L 144.652 86.214 Z" style="fill: rgb(255, 255, 255);"/>
    <path d="M 166.342 54.784 C 166.829 54.783 167.295 54.585 167.632 54.234 L 170.202 51.554 C 170.523 51.216 170.967 51.025 171.432 51.024 L 171.542 51.024 C 172.03 51.022 172.494 51.234 172.812 51.604 L 174.982 54.054 C 175.399 54.515 175.99 54.78 176.612 54.784 L 182.422 54.784 C 170.286 38.624 146.039 38.624 133.902 54.784 L 166.342 54.784 Z" style="fill: rgb(255, 255, 255);"/>
    <path d="M 154.662 93.714 L 146.712 93.714 C 146.091 93.713 145.5 93.443 145.092 92.974 L 142.932 90.524 C 142.249 89.762 141.056 89.762 140.372 90.524 L 138.502 92.664 C 137.897 93.356 137.022 93.753 136.102 93.754 L 135.982 93.754 C 147.975 106.618 168.36 106.618 180.352 93.754 L 154.662 93.714 Z" style="fill: rgb(255, 255, 255);"/>
  </g>
</svg>